<svg xmlns="http://www.w3.org/2000/svg" xmlns:xlink="http://www.w3.org/1999/xlink" width="380" zoomAndPan="magnify" viewBox="0 0 285 82.499998" height="110" preserveAspectRatio="xMidYMid meet" version="1.0"><defs><g/><clipPath id="1bd587327a"><path d="M 122.246094 19.886719 L 246.738281 19.886719 L 246.738281 57.160156 L 122.246094 57.160156 Z M 122.246094 19.886719 " clip-rule="nonzero"/></clipPath></defs><g fill="#dbcc8e" fill-opacity="1"><g transform="translate(129.571629, 54.98994)"><g><path d="M 2.109375 -22.875 L 0.234375 -22.875 L 2.109375 -31.34375 L 10.578125 -31.34375 L 10.578125 -19.40625 L 15.359375 -31.34375 L 24.015625 -31.34375 L 17.484375 -16.109375 L 24.90625 0 L 15.734375 0 L 10.578125 -11.984375 L 10.578125 0 L 2.109375 0 Z M 2.109375 -22.875 "/></g></g></g><g fill="#dbcc8e" fill-opacity="1"><g transform="translate(153.761335, 54.98994)"><g><path d="M 1.96875 -24.4375 L 0.234375 -24.4375 L 1.96875 -32.09375 L 9.671875 -32.09375 L 9.671875 -7.515625 L 11.328125 -7.515625 L 9.671875 0 L 1.96875 0 Z M 1.96875 -24.4375 "/></g></g></g><g fill="#dbcc8e" fill-opacity="1"><g transform="translate(165.316037, 54.98994)"><g><path d="M 9.859375 -0.09375 C 8.421875 -0.15625 7.316406 -0.300781 6.546875 -0.53125 C 5.785156 -0.769531 5.0625 -1.203125 4.375 -1.828125 C 3.207031 -2.867188 2.328125 -4.21875 1.734375 -5.875 C 1.140625 -7.53125 0.84375 -9.441406 0.84375 -11.609375 C 0.84375 -13.328125 1.046875 -14.890625 1.453125 -16.296875 C 1.859375 -17.710938 2.4375 -18.921875 3.1875 -19.921875 C 3.945312 -20.921875 4.863281 -21.6875 5.9375 -22.21875 C 7.019531 -22.75 8.21875 -23.015625 9.53125 -23.015625 C 10.257812 -23.015625 10.910156 -22.9375 11.484375 -22.78125 C 12.066406 -22.625 12.671875 -22.375 13.296875 -22.03125 L 13.296875 -22.875 L 20.71875 -22.875 L 20.71875 -7.515625 L 22.359375 -7.515625 L 20.71875 0 L 13.015625 0 L 13.015625 -6.90625 L 11.46875 0 Z M 13.015625 -11.9375 C 13.015625 -12.5 13.003906 -12.957031 12.984375 -13.3125 C 12.972656 -13.675781 12.941406 -13.972656 12.890625 -14.203125 C 12.847656 -14.441406 12.796875 -14.628906 12.734375 -14.765625 C 12.671875 -14.910156 12.578125 -15.046875 12.453125 -15.171875 C 12.109375 -15.546875 11.6875 -15.734375 11.1875 -15.734375 C 10.46875 -15.734375 9.882812 -15.363281 9.4375 -14.625 C 9 -13.894531 8.78125 -12.9375 8.78125 -11.75 C 8.78125 -8.894531 9.894531 -7.46875 12.125 -7.46875 C 12.1875 -7.46875 12.3125 -7.46875 12.5 -7.46875 C 12.6875 -7.46875 12.859375 -7.484375 13.015625 -7.515625 Z M 13.015625 -11.9375 "/></g></g></g><path stroke-linecap="butt" transform="matrix(1.680322, 0, 0, 1.680322, 190.702735, 7.94092)" fill="none" stroke-linejoin="miter" d="M -0.253161 14.380903 L 4.724029 14.380903 L 5.842211 20.532067 L 7.125447 14.380903 L 11.017 14.380903 L 12.272339 20.532067 L 13.420743 14.380903 L 18.395607 14.380903 L 14.820214 27.999013 L 10.149885 27.999013 L 9.057275 22.184931 L 7.911196 27.999013 L 3.296661 27.999013 Z M 20.966729 18.94197 L 18.284021 18.94197 L 19.31619 14.380903 L 26.783136 14.380903 L 24.20969 23.528609 L 26.836604 23.528609 L 25.827683 27.999013 L 18.393283 27.999013 Z M 30.969926 22.54526 C 31.753351 22.54526 32.367073 22.807951 32.813416 23.331009 C 33.264408 23.854067 33.489904 24.560777 33.489904 25.453463 C 33.489904 26.350799 33.25046 27.059833 32.771571 27.582891 C 32.299656 28.1013 31.671986 28.361667 30.888561 28.361667 C 30.105137 28.361667 29.479791 28.1013 29.010201 27.582891 C 28.547585 27.059833 28.315115 26.369396 28.315115 25.509256 C 28.315115 24.61657 28.556884 23.900562 29.038098 23.358906 C 29.526285 22.81725 30.170228 22.54526 30.969926 22.54526 Z M 30.969926 22.54526 " stroke="#dbcc8e" stroke-width="0.751519" stroke-opacity="1" stroke-miterlimit="4"/><g clip-path="url(#1bd587327a)"><path fill="#000000" d="M 126.402344 57.15625 C 125.257812 57.15625 124.128906 56.929688 123.308594 56.074219 C 122.402344 55.128906 122.246094 53.523438 122.925781 52.167969 C 123.585938 50.859375 124.839844 49.96875 125.730469 49.414062 C 128.585938 47.628906 131.925781 46.816406 135.152344 46.03125 C 139.347656 45.015625 143.304688 44.054688 146.390625 41.152344 C 147.746094 39.878906 148.265625 38.6875 148.765625 37.53125 C 149.289062 36.332031 149.78125 35.195312 151.15625 34.253906 C 151.828125 33.792969 152.578125 33.464844 153.3125 33.253906 C 153.316406 33.183594 153.320312 33.113281 153.324219 33.046875 C 153.398438 31.902344 154.019531 30.121094 155.171875 27.746094 C 155.332031 27.421875 155.523438 27.085938 155.707031 26.765625 C 156.257812 25.800781 156.824219 24.804688 156.699219 23.785156 C 156.515625 22.277344 154.996094 20.734375 153.570312 20.613281 C 152.578125 20.527344 151.507812 21.039062 150.699219 21.984375 C 149.941406 22.871094 149.605469 23.949219 149.820312 24.792969 C 150.039062 25.644531 150.78125 26.203125 151.367188 26.523438 C 151.519531 26.609375 151.574219 26.796875 151.488281 26.949219 C 151.40625 27.101562 151.214844 27.15625 151.0625 27.074219 C 150.371094 26.691406 149.484375 26.015625 149.210938 24.949219 C 148.941406 23.894531 149.316406 22.632812 150.21875 21.578125 C 151.160156 20.480469 152.429688 19.886719 153.625 19.988281 C 154.480469 20.0625 155.347656 20.515625 156.074219 21.261719 C 156.765625 21.976562 157.222656 22.871094 157.328125 23.710938 C 157.476562 24.933594 156.828125 26.070312 156.253906 27.074219 C 156.066406 27.402344 155.890625 27.710938 155.742188 28.019531 C 154.625 30.320312 154.023438 32.023438 153.953125 33.085938 C 153.953125 33.089844 153.953125 33.09375 153.953125 33.101562 C 154.78125 32.9375 155.542969 32.925781 156.09375 33.046875 C 156.570312 33.152344 156.894531 33.347656 157.0625 33.628906 C 157.421875 34.238281 157.003906 35.203125 156.488281 35.902344 C 155.984375 36.585938 155.207031 37.257812 154.539062 37.105469 C 154.03125 36.992188 153.671875 36.433594 153.472656 35.449219 C 153.378906 34.992188 153.320312 34.453125 153.308594 33.914062 C 152.6875 34.105469 152.066406 34.390625 151.515625 34.769531 C 150.289062 35.609375 149.851562 36.617188 149.34375 37.78125 C 148.839844 38.9375 148.273438 40.246094 146.824219 41.609375 C 143.617188 44.621094 139.390625 45.648438 135.304688 46.640625 C 132.121094 47.414062 128.835938 48.210938 126.0625 49.945312 C 125.242188 50.460938 124.078125 51.28125 123.492188 52.449219 C 123.027344 53.367188 122.917969 54.757812 123.761719 55.640625 C 124.863281 56.785156 126.710938 56.566406 128.34375 56.375 C 128.761719 56.328125 129.15625 56.28125 129.53125 56.257812 C 152.882812 54.789062 176.707031 55.128906 199.746094 55.457031 C 205.421875 55.539062 211.292969 55.625 217.058594 55.679688 C 219.867188 55.707031 222.777344 55.667969 225.589844 55.632812 C 232.5 55.546875 239.644531 55.453125 246.445312 56.269531 C 246.617188 56.289062 246.742188 56.445312 246.71875 56.617188 C 246.699219 56.789062 246.542969 56.910156 246.371094 56.890625 C 239.609375 56.082031 232.488281 56.171875 225.601562 56.257812 C 222.78125 56.296875 219.867188 56.332031 217.050781 56.304688 C 211.285156 56.25 205.414062 56.164062 199.738281 56.085938 C 176.710938 55.753906 152.898438 55.414062 129.570312 56.882812 C 129.210938 56.90625 128.824219 56.949219 128.417969 57 C 127.78125 57.074219 127.089844 57.15625 126.402344 57.15625 Z M 153.9375 33.746094 C 153.941406 34.296875 153.996094 34.863281 154.089844 35.324219 C 154.253906 36.125 154.5 36.457031 154.679688 36.496094 C 154.925781 36.550781 155.480469 36.207031 155.980469 35.53125 C 156.511719 34.808594 156.65625 34.175781 156.519531 33.945312 C 156.449219 33.824219 156.242188 33.71875 155.960938 33.65625 C 155.445312 33.546875 154.714844 33.570312 153.9375 33.746094 Z M 153.9375 33.746094 " fill-opacity="1" fill-rule="nonzero"/></g></svg>