<svg xmlns="http://www.w3.org/2000/svg" xmlns:xlink="http://www.w3.org/1999/xlink" width="224" zoomAndPan="magnify" viewBox="0 0 168 82.499998" height="110" preserveAspectRatio="xMidYMid meet" version="1.0"><defs><clipPath id="37f56d872c"><path d="M 6 18.21875 L 130.261719 18.21875 L 130.261719 55.492188 L 6 55.492188 Z M 6 18.21875 " clip-rule="nonzero"/></clipPath></defs><path stroke-linecap="butt" transform="matrix(1.680322, 0, 0, 1.680322, 74.222826, 7.94092)" fill="none" stroke-linejoin="miter" d="M -0.253494 14.380901 L 4.723695 14.380901 L 5.844201 20.532064 L 7.127437 14.380901 L 11.016665 14.380901 L 12.274329 20.532064 L 13.420408 14.380901 L 18.397596 14.380901 L 14.819879 27.999009 L 10.149551 27.999009 L 9.059265 22.184928 L 7.910862 27.999009 L 3.296327 27.999009 Z M 20.966393 18.941968 L 18.283686 18.941968 L 19.315854 14.380901 L 26.782799 14.380901 L 24.209353 23.528606 L 26.838592 23.528606 L 25.827346 27.999009 L 18.392947 27.999009 Z M 30.969589 22.545257 C 31.753014 22.545257 32.366735 22.807948 32.813078 23.331006 C 33.264071 23.854064 33.489567 24.560774 33.489567 25.45346 C 33.489567 26.350795 33.250122 27.05983 32.771234 27.582888 C 32.299319 28.101296 31.671649 28.361663 30.888224 28.361663 C 30.104799 28.361663 29.479454 28.101296 29.009864 27.582888 C 28.547249 27.05983 28.314778 26.369393 28.314778 25.509253 C 28.314778 24.616567 28.556547 23.900558 29.037761 23.358903 C 29.525948 22.817247 30.169891 22.545257 30.969589 22.545257 Z M 30.969589 22.545257 " stroke="#000000" stroke-width="0.751519" stroke-opacity="1" stroke-miterlimit="4"/><path stroke-linecap="butt" transform="matrix(1.680322, 0, 0, 1.680322, 13.145715, 7.94092)" fill="none" stroke-linejoin="miter" d="M 1.256959 14.380901 L 0.136453 14.380901 L 1.256959 9.350244 L 6.29459 9.350244 L 6.29459 16.449886 L 9.140027 9.350244 L 14.286918 9.350244 L 10.40234 18.409611 L 14.819275 27.999009 L 9.365523 27.999009 L 6.29459 20.873795 L 6.29459 27.999009 L 1.256959 27.999009 Z M 15.570154 13.460318 L 14.533337 13.460318 L 15.570154 8.899252 L 20.156793 8.899252 L 20.156793 23.528606 L 21.133168 23.528606 L 20.156793 27.999009 L 15.570154 27.999009 Z M 27.142525 27.945541 C 26.287034 27.908346 25.629143 27.820007 25.171177 27.6782 C 24.715535 27.538718 24.28314 27.280676 23.873993 26.908724 C 23.181231 26.292678 22.658173 25.49298 22.302494 24.504981 C 21.953788 23.516983 21.777111 22.380203 21.777111 21.092318 C 21.777111 20.067124 21.897995 19.137243 22.139764 18.30035 C 22.381533 17.458807 22.723265 16.738149 23.169608 16.143025 C 23.6206 15.547901 24.166905 15.09226 24.808523 14.778425 C 25.450141 14.459941 26.1615 14.299536 26.944925 14.299536 C 27.37732 14.299536 27.76322 14.348355 28.104952 14.443668 C 28.451332 14.534331 28.811661 14.683112 29.183614 14.887686 L 29.183614 14.380901 L 33.600549 14.380901 L 33.600549 23.528606 L 34.583898 23.528606 L 33.600549 27.999009 L 29.020885 27.999009 L 29.020885 23.89126 L 28.091003 27.999009 Z M 29.020885 20.901692 C 29.020885 20.56461 29.01391 20.28797 28.999962 20.074098 C 28.990663 19.860225 28.972066 19.683548 28.944169 19.541741 C 28.918598 19.402259 28.886052 19.290673 28.848857 19.206984 C 28.813986 19.12097 28.755868 19.04193 28.679153 18.969864 C 28.474579 18.746692 28.223512 18.635107 27.928274 18.635107 C 27.500529 18.635107 27.154148 18.853629 26.889132 19.290673 C 26.63109 19.727717 26.500907 20.299594 26.500907 21.010953 C 26.500907 22.707986 27.163447 23.556502 28.488528 23.556502 C 28.523398 23.556502 28.597789 23.556502 28.70705 23.556502 C 28.82096 23.556502 28.925572 23.547204 29.020885 23.528606 Z M 29.020885 20.901692 " stroke="#000000" stroke-width="0.751519" stroke-opacity="1" stroke-miterlimit="4"/><g clip-path="url(#37f56d872c)"><path fill="#f8f9fa" d="M 9.933594 55.800781 C 8.789062 55.800781 7.65625 55.574219 6.828125 54.710938 C 5.921875 53.757812 5.765625 52.140625 6.449219 50.773438 C 7.109375 49.453125 8.367188 48.554688 9.257812 47.996094 C 12.121094 46.195312 15.46875 45.378906 18.707031 44.585938 C 22.90625 43.558594 26.875 42.589844 29.96875 39.664062 C 31.328125 38.382812 31.847656 37.175781 32.351562 36.011719 C 32.875 34.800781 33.367188 33.65625 34.746094 32.707031 C 35.421875 32.242188 36.171875 31.914062 36.910156 31.699219 C 36.910156 31.628906 36.914062 31.558594 36.921875 31.488281 C 36.996094 30.335938 37.617188 28.539062 38.773438 26.144531 C 38.933594 25.816406 39.125 25.480469 39.308594 25.15625 C 39.859375 24.183594 40.429688 23.175781 40.304688 22.152344 C 40.121094 20.632812 38.59375 19.074219 37.164062 18.949219 C 36.171875 18.863281 35.097656 19.382812 34.289062 20.332031 C 33.527344 21.230469 33.191406 22.316406 33.410156 23.167969 C 33.628906 24.027344 34.371094 24.589844 34.957031 24.914062 C 35.109375 24.996094 35.164062 25.1875 35.082031 25.339844 C 34.996094 25.496094 34.804688 25.550781 34.652344 25.464844 C 33.957031 25.082031 33.074219 24.402344 32.796875 23.324219 C 32.527344 22.261719 32.902344 20.992188 33.808594 19.925781 C 34.75 18.816406 36.023438 18.21875 37.222656 18.320312 C 38.078125 18.394531 38.949219 18.851562 39.675781 19.605469 C 40.371094 20.328125 40.828125 21.226562 40.933594 22.074219 C 41.082031 23.308594 40.429688 24.453125 39.855469 25.464844 C 39.667969 25.796875 39.492188 26.109375 39.34375 26.421875 C 38.222656 28.742188 37.621094 30.460938 37.550781 31.527344 C 37.550781 31.535156 37.550781 31.539062 37.550781 31.542969 C 38.378906 31.378906 39.144531 31.367188 39.699219 31.488281 C 40.171875 31.59375 40.5 31.792969 40.667969 32.078125 C 41.03125 32.695312 40.605469 33.664062 40.089844 34.371094 C 39.585938 35.058594 38.808594 35.738281 38.136719 35.585938 C 37.628906 35.46875 37.269531 34.90625 37.066406 33.910156 C 36.972656 33.449219 36.917969 32.90625 36.902344 32.363281 C 36.28125 32.558594 35.65625 32.847656 35.105469 33.226562 C 33.875 34.074219 33.4375 35.089844 32.929688 36.265625 C 32.425781 37.429688 31.855469 38.75 30.402344 40.125 C 27.1875 43.164062 22.953125 44.199219 18.855469 45.199219 C 15.667969 45.980469 12.371094 46.785156 9.59375 48.53125 C 8.769531 49.050781 7.601562 49.875 7.011719 51.054688 C 6.550781 51.984375 6.4375 53.386719 7.285156 54.273438 C 8.390625 55.429688 10.242188 55.210938 11.878906 55.015625 C 12.296875 54.96875 12.691406 54.921875 13.066406 54.898438 C 36.476562 53.414062 60.359375 53.757812 83.453125 54.089844 C 89.144531 54.171875 95.027344 54.257812 100.808594 54.3125 C 103.625 54.339844 106.542969 54.304688 109.363281 54.265625 C 116.289062 54.179688 123.449219 54.085938 130.265625 54.90625 C 130.441406 54.929688 130.5625 55.085938 130.542969 55.257812 C 130.523438 55.433594 130.367188 55.554688 130.191406 55.535156 C 123.417969 54.71875 116.277344 54.8125 109.371094 54.898438 C 106.546875 54.933594 103.625 54.972656 100.804688 54.945312 C 95.019531 54.890625 89.136719 54.804688 83.445312 54.722656 C 60.363281 54.390625 36.492188 54.046875 13.105469 55.527344 C 12.75 55.550781 12.363281 55.59375 11.953125 55.644531 C 11.316406 55.71875 10.621094 55.800781 9.933594 55.800781 Z M 37.53125 32.195312 C 37.539062 32.753906 37.59375 33.324219 37.6875 33.785156 C 37.851562 34.59375 38.101562 34.925781 38.277344 34.96875 C 38.527344 35.023438 39.082031 34.679688 39.582031 33.996094 C 40.113281 33.269531 40.257812 32.628906 40.121094 32.398438 C 40.050781 32.277344 39.847656 32.167969 39.5625 32.105469 C 39.046875 31.992188 38.316406 32.019531 37.53125 32.195312 Z M 37.53125 32.195312 " fill-opacity="1" fill-rule="nonzero"/></g></svg>